<!DOCTYPE svg PUBLIC "-//W3C//DTD SVG 1.1//EN" "http://www.w3.org/Graphics/SVG/1.1/DTD/svg11.dtd">
<!-- Uploaded to: SVG Repo, www.svgrepo.com, Transformed by: SVG Repo Mixer Tools -->
<svg fill="#000000" width="64px" height="64px" viewBox="-2.4 -2.4 28.80 28.80" id="coffee-beans-left" data-name="Flat Line" xmlns="http://www.w3.org/2000/svg" class="icon flat-line">
<g id="SVGRepo_bgCarrier" stroke-width="0" transform="translate(1.08,1.08), scale(0.91)">
<rect x="-2.4" y="-2.4" width="28.80" height="28.80" rx="14.4" fill="#c7f1ff" strokewidth="0"/>
</g>
<g id="SVGRepo_tracerCarrier" stroke-linecap="round" stroke-linejoin="round" stroke="#CCCCCC" stroke-width="0.096"/>
<g id="SVGRepo_iconCarrier">
<ellipse id="secondary" cx="14.43" cy="14.44" rx="7" ry="5" transform="matrix(0.5, -0.87, 0.87, 0.5, -5.29, 19.72)" style="fill: #c1630b; stroke-width:1.056;"/>
<path id="primary" d="M6.07,3.5c4.46,4.27,3.2,5.81,4,8.18" style="fill: none; stroke: #000000; stroke-linecap: round; stroke-linejoin: round; stroke-width:1.056;"/>
<path id="primary-2" data-name="primary" d="M14.37,8a10.14,10.14,0,0,0-.47-.93C12,3.71,8.46,2.12,6.07,3.5S3.3,8.71,5.24,12.06a8.61,8.61,0,0,0,3.47,3.42" style="fill: none; stroke: #000000; stroke-linecap: round; stroke-linejoin: round; stroke-width:1.056;"/>
<path id="primary-3" data-name="primary" d="M17.93,8.38c-6.41,6.13-1,6.63-6.92,12.06" style="fill: none; stroke: #000000; stroke-linecap: round; stroke-linejoin: round; stroke-width:1.056;"/>
<ellipse id="primary-4" data-name="primary" cx="14.43" cy="14.44" rx="7" ry="5" transform="matrix(0.5, -0.87, 0.87, 0.5, -5.29, 19.72)" style="fill: none; stroke: #000000; stroke-linecap: round; stroke-linejoin: round; stroke-width:1.056;"/>
</g>
</svg>